<svg width="24" height="24" viewBox="0 0 24 24" fill="none" xmlns="http://www.w3.org/2000/svg">
<mask id="mask0_1_20480" style="mask-type:alpha" maskUnits="userSpaceOnUse" x="0" y="0" width="24" height="24">
<rect width="24" height="24" fill="#D9D9D9"/>
</mask>
<g mask="url(#mask0_1_20480)">
<path d="M4.49999 20.5V11.2403L2.63274 12.673L1.73074 11.477L4.49999 9.35001V6.48076H5.99999V8.20001L12 3.62501L22.2692 11.477L21.3672 12.6578L19.5 11.2403V20.5H4.49999ZM5.99999 19H10.8077V14.6153H13.1922V19H18V10.1L12 5.52501L5.99999 10.1V19ZM4.49999 5.38476C4.49999 4.66676 4.74199 4.05459 5.22599 3.54826C5.70999 3.04176 6.33983 2.78851 7.11549 2.78851C7.47566 2.78851 7.75158 2.68309 7.94324 2.47226C8.13491 2.26126 8.23074 2.00126 8.23074 1.69226H9.73074C9.73074 2.41026 9.48874 3.02251 9.00474 3.52901C8.52074 4.03534 7.89099 4.28851 7.11549 4.28851C6.75516 4.28851 6.47916 4.39393 6.28749 4.60476C6.09583 4.81576 5.99999 5.07576 5.99999 5.38476H4.49999Z" fill="#1C1B1F" fill-opacity="0.54"/>
</g>
</svg>
